<svg xmlns="http://www.w3.org/2000/svg" style="display: none;">
<symbol id="icon-trash" viewBox="0 0 32 32">
<path d="M11 11c0.552 0 1 0.448 1 1v12c0 0.552-0.448 1-1 1s-1-0.448-1-1v-12c0-0.552 0.448-1 1-1z"></path>
<path d="M16 11c0.552 0 1 0.448 1 1v12c0 0.552-0.448 1-1 1s-1-0.448-1-1v-12c0-0.552 0.448-1 1-1z"></path>
<path d="M22 12c0-0.552-0.448-1-1-1s-1 0.448-1 1v12c0 0.552 0.448 1 1 1s1-0.448 1-1v-12z"></path>
<path d="M29 6c0 1.105-0.895 2-2 2h-1v18c0 2.209-1.791 4-4 4h-12c-2.209 0-4-1.791-4-4v-18h-1c-1.105 0-2-0.895-2-2v-2c0-1.105 0.895-2 2-2h7c0-1.105 0.895-2 2-2h4c1.105 0 2 0.895 2 2h7c1.105 0 2 0.895 2 2v2zM8.236 8l-0.236 0.118v17.882c0 1.105 0.895 2 2 2h12c1.105 0 2-0.895 2-2v-17.882l-0.236-0.118h-15.528zM5 6h22v-2h-22v2z"></path>
</symbol>

  <symbol id="icon-card-list" viewBox="0 0 32 32">
<path d="M29 6c0.552 0 1 0.448 1 1v18c0 0.552-0.448 1-1 1h-26c-0.552 0-1-0.448-1-1v-18c0-0.552 0.448-1 1-1h26zM3 4c-1.657 0-3 1.343-3 3v18c0 1.657 1.343 3 3 3h26c1.657 0 3-1.343 3-3v-18c0-1.657-1.343-3-3-3h-26z"></path>
<path d="M10 16c0-0.552 0.448-1 1-1h14c0.552 0 1 0.448 1 1s-0.448 1-1 1h-14c-0.552 0-1-0.448-1-1z"></path>
<path d="M10 11c0-0.552 0.448-1 1-1h14c0.552 0 1 0.448 1 1s-0.448 1-1 1h-14c-0.552 0-1-0.448-1-1z"></path>
<path d="M10 21c0-0.552 0.448-1 1-1h14c0.552 0 1 0.448 1 1s-0.448 1-1 1h-14c-0.552 0-1-0.448-1-1z"></path>
<path d="M8 11c0 0.552-0.448 1-1 1s-1-0.448-1-1c0-0.552 0.448-1 1-1s1 0.448 1 1z"></path>
<path d="M8 16c0 0.552-0.448 1-1 1s-1-0.448-1-1c0-0.552 0.448-1 1-1s1 0.448 1 1z"></path>
<path d="M8 21c0 0.552-0.448 1-1 1s-1-0.448-1-1c0-0.552 0.448-1 1-1s1 0.448 1 1z"></path>
</symbol>

<symbol id="icon-close-x" viewBox="0 0 32 32">
<path stroke-linejoin="round" stroke-linecap="round" stroke-miterlimit="4" stroke-width="2.6667" d="M24 8l-16 16M8 8l16 16"></path>
</symbol>

<symbol id="icon-close-black" viewBox="0 0 32 32">
<path d="M32 3.223l-3.223-3.223-12.777 12.777-12.777-12.777-3.223 3.223 12.777 12.777-12.777 12.777 3.223 3.223 12.777-12.777 12.777 12.777 3.223-3.223-12.777-12.777 12.777-12.777z"></path>
</symbol>
</svg>
